<svg xmlns="http://www.w3.org/2000/svg" viewBox="0 0 87.99 114.89"><defs><style>.cls-1{fill:#6500fe;}</style></defs><g id="Capa_2" data-name="Capa 2"><g id="Capa_1-2" data-name="Capa 1"><path class="cls-1" d="M67.19,5.36c-1.56,5.63-2.74,11-4.66,16.14-.66,1.76-3.27,2.67-4.8,4.18s-3.38,3-4,4.88q-1.26,3.8-2.49,7.6c-2.37,7.3-4.65,14.63-6.91,22L42.1,67.38a4.39,4.39,0,0,0,.81,3c1.67,2.66,1.87,5.29-.1,7.74a5.44,5.44,0,0,1-6.69,1.91,5.84,5.84,0,0,1-3.87-6.3c.29-3.16,2.19-4.85,5.15-5.67A4.14,4.14,0,0,0,40,65.75c.62-2.24,1.23-4.49,1.83-6.73,2-7.42,3.92-14.85,5.91-22.26.35-1.33.71-2.66,1.07-4A17.55,17.55,0,0,0,47.6,20.31a10.35,10.35,0,0,1-.46-5.95c.9-4.54,2.25-9,3.65-14.36,1.34,1.64,2,2.4,2.6,3.2,4.31,5.59,4.3,5.58,10.77,3.11C65,6,65.87,5.77,67.19,5.36Z"/><path class="cls-1" d="M75.24,75.8v-.26a1.34,1.34,0,0,0,0-.2c0-.25,0-.51,0-.76s0-.66,0-1h0a3.11,3.11,0,0,1,0-.43.22.22,0,0,1,0-.08q-.06-.77-.15-1.53c0-.28-.06-.56-.11-.84s-.1-.83-.17-1.24c-.15-1-.34-1.91-.57-2.86a.19.19,0,0,0,0-.1c-.07-.32-.15-.65-.24-1-.12-.49-.26-1-.4-1.47s-.26-.86-.42-1.28-.21-.62-.32-.92c-.23-.63-.46-1.26-.72-1.87a41.43,41.43,0,0,0-7-11.51c-.25-.3-.51-.59-.78-.88a39.78,39.78,0,0,0-7.87-6.66c-.45,1.41-.91,2.81-1.35,4.21-.75,2.35-1.49,4.68-2.2,7,7.79,5.76,14.25,18.55,10.37,32C58.89,98.75,43.83,106.68,30,101.5,15.74,96.2,7.79,79.94,12.22,65.21c3.7-12.34,15.75-20.35,27-18.69q.91-3.48,1.85-7c.36-1.4.74-2.8,1.11-4.2a35.09,35.09,0,0,0-16.08,1c-14.33,4.29-24,17-25.82,31.78q-.09.72-.15,1.44c0,.49-.07,1-.1,1.49s0,.88,0,1.32a42.35,42.35,0,0,0,1.8,13.15,41.74,41.74,0,0,0,16.44,22.65l.55.37a36.22,36.22,0,0,0,30.35,4.7A36.12,36.12,0,0,0,71.52,93.51c.14-.3.28-.61.41-.91s.33-.79.49-1.19.34-.88.49-1.32a1.8,1.8,0,0,0,.08-.21q.18-.5.33-1c.08-.25.16-.51.23-.76,0,0,0,0,0,0a38,38,0,0,0,1-4.49c0-.22.08-.45.11-.67a.5.5,0,0,0,0-.12c.07-.43.13-.87.19-1.3s.1-.89.14-1.34c0-.25.05-.5.07-.75V79.3c0-.42.06-.84.07-1.27,0-.58,0-1.17,0-1.76C75.25,76.11,75.25,76,75.24,75.8Z"/><path class="cls-1" d="M50.68,57.59c-.51,1.65-1,3.25-1.46,4.77L47.47,68c2.73,4.58,2.5,9.43-.66,13.36a11.92,11.92,0,0,1-2.6,2.43,10.05,10.05,0,0,1-11.15.86,11.41,11.41,0,0,1-4.88-5.24c-1.86-4-1.5-9.34,1.59-12.63l.16-.19a12,12,0,0,1,5-3.17c.41-1.47,1.34-4.94,1.4-5.17.55-2,1.1-4.12,1.64-6.18a19.18,19.18,0,0,0-14.69,5.3A21.37,21.37,0,0,0,16.57,71c-1.35,10.92,5.25,21.75,15.36,25.27S52.58,94.94,57,84.9A23.94,23.94,0,0,0,50.68,57.59Z"/><path class="cls-1" d="M88,47v53.81a14.11,14.11,0,0,1-14.11,14.11h-.62a14,14,0,0,1-9-3.25,42.92,42.92,0,0,0,12.4-15.73c.16-.35.32-.7.47-1s.37-.88.54-1.3.38-1,.55-1.47c0-.12.09-.24.13-.36l.24-.69,0,0,.39-1.3a43.73,43.73,0,0,0,1.19-5.11c0-.22.08-.45.11-.68s0-.23.06-.37c.06-.38.11-.76.17-1.13l0-.45c0-.41.09-.82.13-1.23s.06-.58.08-.88l0-.22v-.1c0-.44,0-.87.07-1.31,0-.65,0-1.31,0-2,0-.21,0-.4,0-.6v-.13c0-.09,0-.25,0-.46s0-.47,0-.66,0-.63,0-1v-.24l0-.22v-.7L80.72,72c0-.37-.07-.74-.12-1.1s-.07-.64-.12-1c0-.49-.12-1-.19-1.37-.16-1-.37-2.08-.61-3.09a4.9,4.9,0,0,0-.13-.55c-.07-.28-.14-.57-.22-.85-.12-.51-.27-1-.43-1.58l0-.12c-.15-.5-.31-1-.49-1.48-.11-.34-.23-.67-.34-1-.27-.73-.54-1.45-.8-2.07a47.17,47.17,0,0,0-8-13.05c-.31-.36-.62-.71-.92-1a45.22,45.22,0,0,0-6.11-5.58,14.07,14.07,0,0,1,11-5.32h.62A14.11,14.11,0,0,1,88,47Z"/></g></g></svg>